# xmcd
#
# Track frame offsets:
#	150
#	14824
#	38975
#	63501
#	80818
#	112989
#	132020
#	150982
#	176108
#	200718
#	217403
#	238521
#	266441
#	288962
#	315052
#
# Disc length: 4541 seconds
#
# Revision: 0
# Processed by: cddbd v1.5.2PL0 Copyright (c) Steve Scherf et al.
# Submitted via: dBpowerAMP V4.0
#
DISCID=d711bb0f
DTITLE=Lancaster - Blues Journey
DYEAR=2007
DGENRE=Blues
TTITLE0=Scrap Iron
TTITLE1=Mysterious Eyes
TTITLE2=Nighttime Plumber
TTITLE3=Sweet Sister
TTITLE4=A Beaultiful Day For The Blues
TTITLE5=Happy Man Blues
TTITLE6=Itamara
TTITLE7=Family Man
TTITLE8=Late Night Blues
TTITLE9=I Get My Kicks
TTITLE10=Sore Feet
TTITLE11=Caruaru
TTITLE12=Working Like A Slave
TTITLE13=My Woman Is Like A Bank
TTITLE14=The Blues Took Over My Life
EXTD=
EXTT0=
EXTT1=
EXTT2=
EXTT3=
EXTT4=
EXTT5=
EXTT6=
EXTT7=
EXTT8=
EXTT9=
EXTT10=
EXTT11=
EXTT12=
EXTT13=
EXTT14=
PLAYORDER=
